<?xml version="1.0" encoding="UTF-8" standalone="no"?>
<!-- Created with Inkscape (http://www.inkscape.org/) -->

<svg
        width="1999.9999"
        height="2000"
        viewBox="0 0 529.16662 529.16668"
        version="1.1"
        id="svg56950"
        xmlns="http://www.w3.org/2000/svg"
>
	<defs
			id="defs56947">
		<clipPath
				clipPathUnits="userSpaceOnUse"
				id="clipPath64116">
			<path
					id="path64118"
					style="font-variation-settings:'wght' 400;fill:#8b5cf6;stroke-width:8.74559;stroke-linecap:round;stroke-linejoin:round"
					d="M 264.58333,20.90777 A 243.67553,243.67553 0 0 0 20.907773,264.58333 243.67553,243.67553 0 0 0 264.58333,508.25889 243.67553,243.67553 0 0 0 508.25889,264.58333 243.67553,243.67553 0 0 0 264.58333,20.90777 Z m 0,88.05457 L 420.20432,264.58333 264.58333,420.20432 108.96234,264.58333 Z"/>
		</clipPath>
		<clipPath
				clipPathUnits="userSpaceOnUse"
				id="clipPath65060">
			<path
					id="path65062"
					clip-path="none"
					style="fill:#ffd5d5;fill-opacity:1;stroke:none;stroke-width:0.264583px;stroke-linecap:butt;stroke-linejoin:miter;stroke-opacity:1"
					d="m 276.75107,408.03658 -12.16774,12.16774 c 0,0 -105.87679,81.63303 -168.072426,20.74756 -62.195623,-60.88544 54.519156,138.73057 54.519156,138.73057 l 125.72101,-50.05689 z"/>
		</clipPath>
	</defs>
	<circle
			style="font-variation-settings:'wght' 900;display:inline;fill:#292727;fill-opacity:1;stroke:none;stroke-width:8.99999;stroke-linecap:round;stroke-linejoin:round"
			id="path101891"
			cx="265.03696"
			cy="265.22476"
			r="239.42946"/>
	<g
			id="g100963"
			transform="rotate(180,264.58335,264.58332)"
			style="display:inline">
		<path
				style="fill:#ec2c44;fill-opacity:1;stroke:none;stroke-width:0.264583px;stroke-linecap:butt;stroke-linejoin:miter;stroke-opacity:1"
				d="M 264.58333,420.20431 108.96234,264.58333 c 0,0 -81.632962,-105.87704 -20.747518,-168.072674 C 149.10027,34.315031 -50.515929,151.02981 -50.515929,151.02981 L 79.059814,476.46568 168.04588,516.0913 Z"
				id="path70820"
				clip-path="url(#clipPath64116)"
				transform="rotate(-90,264.58334,264.5833)"/>
		<path
				style="fill:#ffb82b;fill-opacity:1;stroke:none;stroke-width:0.264583px;stroke-linecap:butt;stroke-linejoin:miter;stroke-opacity:1"
				d="M 264.58333,420.20431 108.96234,264.58333 c 0,0 -81.632962,-105.87704 -20.747518,-168.072674 C 149.10027,34.315031 -50.515929,151.02981 -50.515929,151.02981 L 79.059814,476.46568 168.04588,516.0913 Z"
				id="path64560"
				clip-path="url(#clipPath64116)"
				transform="rotate(180,264.58334,264.58332)"/>
		<path
				style="fill:#31b134;fill-opacity:1;stroke:none;stroke-width:0.264583px;stroke-linecap:butt;stroke-linejoin:miter;stroke-opacity:1"
				d="M 264.58333,420.20431 108.96234,264.58333 c 0,0 -81.632962,-105.87704 -20.747518,-168.072674 C 149.10027,34.315031 -50.515929,151.02981 -50.515929,151.02981 L 79.059814,476.46568 168.04588,516.0913 Z"
				id="path64558"
				clip-path="url(#clipPath64116)"
				transform="rotate(90,264.58333,264.58333)"/>
		<path
				style="fill:#8b5cf6;fill-opacity:1;stroke:none;stroke-width:0.264583px;stroke-linecap:butt;stroke-linejoin:miter;stroke-opacity:1"
				d="M 264.58333,420.20431 108.96234,264.58333 c 0,0 -81.632962,-105.87704 -20.747518,-168.072674 C 149.10027,34.315031 -50.515929,151.02981 -50.515929,151.02981 L 79.059814,476.46568 168.04588,516.0913 Z"
				id="path64562"
				clip-path="url(#clipPath64116)"/>
		<path
				id="path64949"
				style="font-variation-settings:'wght' 400;fill:#ec2c44;fill-opacity:1;stroke-width:8.74559;stroke-linecap:round;stroke-linejoin:round"
				d="M 20.90778,264.58332 A 243.67553,243.67553 0 0 0 264.58334,508.25888 243.67553,243.67553 0 0 0 508.2589,264.58332 243.67553,243.67553 0 0 0 264.58334,20.90776 243.67553,243.67553 0 0 0 20.90778,264.58332 Z m 88.05457,0 155.62099,-155.62099 155.62099,155.62099 -155.62099,155.62099 z"
				clip-path="url(#clipPath65060)"/>
	</g>
	<g
			aria-label="V"
			id="text78621"
			style="font-size:216.142px;line-height:1.25;font-family:Nunito;-inkscape-font-specification:'Nunito, @wght=900';font-variation-settings:'wght' 900;display:inline;fill:#ffffff;stroke-width:0.133757">
		<path
				d="m 264.6914,360.18136 q -8.2134,0 -13.40081,-3.45827 -4.97126,-3.45827 -8.42953,-11.02324 L 190.55469,230.28002 q -3.45827,-7.56497 -2.16142,-13.61694 1.29686,-6.05198 6.05198,-9.29411 4.75512,-3.45827 11.88781,-3.45827 8.86182,0 13.18466,3.89055 4.53898,3.89056 7.78111,11.45553 L 271.3918,321.2758 h -12.10395 l 44.09297,-102.23516 q 3.24213,-7.56497 7.78111,-11.23939 4.53898,-3.89055 12.75238,-3.89055 6.7004,0 11.23938,3.45827 4.53898,3.24213 5.61969,9.29411 1.29685,6.05197 -2.16142,13.61694 l -52.5225,115.41983 q -3.24213,7.56497 -8.2134,11.02324 -4.97127,3.45827 -13.18466,3.45827 z"
				id="path4054"/>
	</g>
</svg>
